<svg width="192" height="27" viewBox="0 0 192 27" fill="none" xmlns="http://www.w3.org/2000/svg">
<g clip-path="url(#clip0_28027_22295)">
<path d="M0 1.51172H8.36423C10.0308 1.51172 11.5873 1.84576 13.0337 2.51384C14.4802 3.18193 15.738 4.08861 16.8228 5.21799C17.8919 6.34737 18.7409 7.66762 19.3698 9.17876C19.9987 10.6899 20.3131 12.2806 20.3131 13.9508C20.3131 15.621 19.9987 17.1639 19.3698 18.6115C18.7409 20.059 17.8919 21.3156 16.8228 22.3654C15.7537 23.4312 14.4802 24.2583 13.0337 24.8628C11.5873 25.4673 10.0308 25.7695 8.36423 25.7695H0V1.51172ZM8.36423 21.6178C9.46479 21.6178 10.4867 21.4269 11.4301 21.0452C12.3734 20.6634 13.2067 20.1385 13.9299 19.4545C14.6531 18.7705 15.2191 17.9593 15.6279 17.0208C16.0367 16.0823 16.2411 15.0643 16.2411 13.9508C16.2411 12.8691 16.0367 11.8193 15.6279 10.8172C15.2191 9.81503 14.6531 8.92426 13.9299 8.16073C13.2067 7.39721 12.3734 6.79275 11.4301 6.34737C10.4867 5.90198 9.46479 5.67928 8.36423 5.67928H4.11923V21.6178H8.36423Z" fill="#1C2436"/>
<path d="M74.3984 17.212C74.3984 15.8917 74.65 14.6669 75.1374 13.5216C75.6248 12.3763 76.3008 11.3901 77.1498 10.5312C77.9988 9.6722 78.9893 9.02002 80.1213 8.52691C81.2533 8.03381 82.464 7.7793 83.7689 7.7793C85.0738 7.7793 86.2845 8.03381 87.4165 8.52691C88.5485 9.02002 89.539 9.6881 90.3722 10.5312C91.2055 11.3742 91.8659 12.3763 92.369 13.5216C92.8721 14.6669 93.1079 15.8917 93.1079 17.212C93.1079 18.5323 92.8564 19.7571 92.369 20.9024C91.8816 22.0476 91.2212 23.0339 90.3722 23.8928C89.5232 24.7518 88.5485 25.404 87.4165 25.8971C86.2845 26.3902 85.0738 26.6447 83.7689 26.6447C82.464 26.6447 81.2533 26.3902 80.1213 25.8971C78.9893 25.404 77.9988 24.7359 77.1498 23.8928C76.3008 23.0498 75.6405 22.0476 75.1374 20.9024C74.6343 19.7571 74.3984 18.5323 74.3984 17.212ZM78.3762 17.212C78.3762 17.9437 78.5177 18.6595 78.8007 19.3117C79.0837 19.9639 79.4767 20.5365 79.9484 21.0296C80.4358 21.5227 81.0018 21.9045 81.6464 22.1908C82.3067 22.4771 82.9985 22.6203 83.7217 22.6203C84.445 22.6203 85.1524 22.4771 85.7971 22.1908C86.4574 21.9045 87.0234 21.5227 87.4951 21.0296C87.9825 20.5365 88.3598 19.9798 88.6428 19.3117C88.9258 18.6595 89.0673 17.9596 89.0673 17.212C89.0673 16.4803 88.9258 15.7645 88.6428 15.1123C88.3598 14.4601 87.9667 13.8875 87.4951 13.3944C87.0077 12.9013 86.4417 12.5195 85.7971 12.2332C85.1367 11.9469 84.445 11.8037 83.7217 11.8037C82.9985 11.8037 82.291 11.9469 81.6464 12.2332C80.9861 12.5195 80.4201 12.9013 79.9484 13.3944C79.461 13.8875 79.0837 14.4442 78.8007 15.1123C78.5177 15.7804 78.3762 16.4803 78.3762 17.212Z" fill="#1C2436"/>
<path d="M26.0205 17.3538C26.0362 18.0696 26.2092 18.7377 26.5079 19.358C26.8066 19.9784 27.1997 20.5192 27.6713 20.9805C28.143 21.4418 28.709 21.8077 29.3536 22.0781C29.9982 22.3485 30.6743 22.4758 31.3818 22.4758C32.5767 22.4758 33.5829 22.1735 34.4319 21.585C35.2809 20.9964 35.8941 20.2011 36.2871 19.2149H40.6422C40.2491 20.5351 39.7303 21.6486 39.1014 22.5871C38.4568 23.5097 37.7336 24.2573 36.9003 24.8459C36.0827 25.4185 35.2023 25.848 34.259 26.1184C33.3156 26.3888 32.3566 26.5161 31.3818 26.5161C30.0768 26.5161 28.8662 26.2616 27.7342 25.7684C26.6022 25.2753 25.6117 24.6073 24.7784 23.7642C23.9452 22.9211 23.2691 21.919 22.7974 20.7737C22.3101 19.6284 22.0742 18.4036 22.0742 17.0834C22.0742 15.7631 22.3258 14.5383 22.7974 13.393C23.2848 12.2477 23.9452 11.2615 24.7784 10.4025C25.6117 9.55948 26.6022 8.8914 27.7342 8.38238C28.8662 7.88927 30.0768 7.63477 31.3818 7.63477C32.8282 7.63477 34.1175 7.90518 35.2495 8.4301C36.3972 8.97093 37.372 9.67083 38.1581 10.5616C38.9599 11.4524 39.5731 12.4863 40.029 13.6634C40.4692 14.8405 40.7051 16.0653 40.7365 17.3379L26.0205 17.3538ZM36.2714 14.6496C35.9255 13.6793 35.3281 12.8522 34.4476 12.1682C33.5672 11.4842 32.561 11.1502 31.3975 11.1502C30.2341 11.1502 29.2121 11.4842 28.3474 12.1682C27.4827 12.8522 26.8695 13.6793 26.5236 14.6496H36.2714Z" fill="#1C2436"/>
<path d="M43.8497 8.4301H47.8903V9.40041C48.4092 8.78005 48.9752 8.31876 49.5726 8.04834C50.17 7.77793 50.8461 7.63477 51.6322 7.63477C52.7957 7.63477 53.849 7.87337 54.8081 8.35057C55.7514 8.82777 56.5847 9.46404 57.2922 10.2753C58.0154 9.46404 58.8959 8.82777 59.9178 8.35057C60.9398 7.87337 62.0246 7.63477 63.1881 7.63477C64.2572 7.63477 65.2791 7.84155 66.2225 8.25513C67.1658 8.6687 67.9991 9.24135 68.6908 9.95715C69.3826 10.673 69.9486 11.516 70.3574 12.4704C70.7662 13.4248 70.9706 14.4588 70.9706 15.5404V25.7684H66.9142V15.5563C66.9142 15.0473 66.8199 14.5701 66.6155 14.0929C66.4268 13.6316 66.1596 13.2339 65.8137 12.884C65.4678 12.534 65.0747 12.2636 64.6188 12.0568C64.1628 11.85 63.6754 11.7387 63.1723 11.7387C62.6378 11.7387 62.1661 11.8341 61.7102 12.0568C61.2699 12.2636 60.8769 12.5499 60.531 12.884C60.1851 13.218 59.9178 13.6316 59.7292 14.0929C59.5405 14.5542 59.4304 15.0473 59.4304 15.5563V25.7843H55.3898V15.5563C55.3898 15.0314 55.2955 14.5224 55.0911 14.0611C54.9024 13.5998 54.6352 13.2021 54.2893 12.8522C53.9434 12.5022 53.5503 12.2318 53.0944 12.0409C52.6384 11.85 52.151 11.7387 51.6165 11.7387C51.0819 11.7387 50.6103 11.8341 50.1543 12.0568C49.7141 12.2636 49.321 12.5499 48.9752 12.8999C48.6293 13.2657 48.362 13.6634 48.1733 14.1247C47.9847 14.586 47.8746 15.0632 47.8746 15.5404V25.7684H43.834L43.8497 8.4301Z" fill="#1C2436"/>
<path d="M100.152 17.0834C100.152 17.8151 100.293 18.5309 100.576 19.1831C100.859 19.8352 101.237 20.4079 101.724 20.901C102.196 21.3941 102.777 21.7759 103.422 22.0622C104.067 22.3485 104.758 22.4917 105.497 22.4917C106.393 22.4917 107.195 22.3167 107.934 21.9826C108.673 21.6486 109.255 21.1555 109.711 20.5033H114.16C113.72 21.5373 113.185 22.4439 112.572 23.2075C111.943 23.971 111.252 24.5913 110.497 25.0845C109.742 25.5776 108.94 25.9275 108.091 26.1661C107.242 26.4047 106.378 26.5161 105.482 26.5161C104.177 26.5161 102.966 26.2616 101.834 25.7684C100.702 25.2753 99.7115 24.6073 98.8782 23.7642C98.045 22.9211 97.3846 21.919 96.8815 20.7737C96.3941 19.6284 96.1426 18.4036 96.1426 17.0834C96.1426 15.7631 96.3784 14.5383 96.8815 13.393C97.3689 12.2477 98.0292 11.2615 98.8782 10.4025C99.7115 9.55948 100.702 8.8914 101.834 8.38238C102.966 7.88927 104.177 7.63477 105.482 7.63477C106.331 7.63477 107.18 7.74611 108.029 7.96881C108.878 8.1915 109.695 8.54145 110.466 9.01865C111.236 9.51176 111.928 10.1162 112.572 10.8797C113.217 11.6274 113.751 12.534 114.176 13.5998H109.679C109.176 12.8999 108.563 12.4068 107.824 12.1046C107.085 11.8023 106.299 11.6592 105.466 11.6592C104.727 11.6592 104.051 11.8023 103.391 12.0887C102.746 12.375 102.18 12.7567 101.693 13.2498C101.221 13.743 100.828 14.2997 100.545 14.9678C100.293 15.6359 100.152 16.3358 100.152 17.0834Z" fill="#1C2436"/>
<path d="M127.886 11.914C127.147 11.914 126.423 12.0571 125.669 12.3275C124.93 12.5979 124.254 13.0115 123.656 13.5364C123.059 14.0773 122.571 14.7135 122.194 15.493C121.817 16.2724 121.628 17.1473 121.628 18.1176V25.7846H117.65V8.43038H121.628V10.721C122.084 10.1483 122.603 9.6552 123.185 9.25753C123.766 8.85987 124.364 8.54173 124.993 8.30313C125.622 8.06453 126.219 7.88956 126.816 7.77821C127.414 7.66686 127.948 7.61914 128.42 7.61914L127.886 11.914Z" fill="#1C2436"/>
<path d="M129.631 17.0834C129.631 15.7631 129.882 14.5383 130.37 13.393C130.857 12.2477 131.533 11.2615 132.382 10.4025C133.231 9.54358 134.222 8.8914 135.354 8.38238C136.486 7.88927 137.696 7.63477 139.001 7.63477C140.306 7.63477 141.517 7.88927 142.649 8.38238C143.781 8.87549 144.771 9.54358 145.605 10.4025C146.438 11.2615 147.098 12.2477 147.601 13.393C148.104 14.5383 148.34 15.7631 148.34 17.0834V25.7844H144.363V24.814C142.806 25.9434 141.029 26.5161 139.017 26.5161C137.602 26.5161 136.313 26.2775 135.165 25.7844C134.017 25.2912 133.027 24.6232 132.209 23.7801C131.392 22.9211 130.763 21.919 130.323 20.7737C129.882 19.6284 129.631 18.4036 129.631 17.0834ZM133.609 17.0834C133.609 17.8151 133.75 18.5309 134.033 19.1831C134.316 19.8352 134.709 20.4079 135.181 20.901C135.668 21.3941 136.234 21.7759 136.879 22.0622C137.539 22.3485 138.231 22.4917 138.954 22.4917C139.677 22.4917 140.385 22.3644 141.029 22.094C141.674 21.8236 142.256 21.4577 142.727 20.9646C143.199 20.4715 143.592 19.9148 143.875 19.2467C144.158 18.5945 144.3 17.8628 144.3 17.0834C144.3 16.3517 144.158 15.6359 143.875 14.9837C143.592 14.3315 143.199 13.7589 142.727 13.2658C142.24 12.7726 141.674 12.3909 141.029 12.1046C140.369 11.8182 139.677 11.6751 138.954 11.6751C138.231 11.6751 137.523 11.8182 136.879 12.1046C136.218 12.3909 135.652 12.7726 135.181 13.2658C134.693 13.7589 134.316 14.3156 134.033 14.9837C133.766 15.6359 133.609 16.3358 133.609 17.0834Z" fill="#1C2436"/>
<path d="M151.752 12.4717V8.44734H153.324V1.49609H157.302V8.43143H161.311V12.4558H157.302V25.7857H153.324V12.4558H151.752V12.4717Z" fill="#1C2436"/>
<path d="M164.471 2.57689C164.471 1.82928 164.707 1.22482 165.194 0.731711C165.681 0.238602 166.263 0 166.939 0C167.678 0 168.275 0.238602 168.763 0.731711C169.25 1.22482 169.486 1.82928 169.486 2.57689C169.486 3.27679 169.25 3.86534 168.763 4.34254C168.275 4.83565 167.678 5.07425 166.939 5.07425C166.247 5.07425 165.666 4.83565 165.194 4.34254C164.722 3.86534 164.471 3.27679 164.471 2.57689ZM164.927 8.43057H168.967V25.7848H164.927V8.43057Z" fill="#1C2436"/>
<path d="M177.913 14.5396L184.186 8.43143H189.532L182.017 15.8281L189.532 25.7857H184.359L179.045 18.739L177.945 19.8207V25.7857H173.936V1.49609H177.913V14.5396Z" fill="#1C2436"/>
<path fill-rule="evenodd" clip-rule="evenodd" d="M81.7023 14.5137L85.5045 18.3604L83.648 20.2388L79.8457 16.3921L81.7023 14.5137Z" fill="#4DF189"/>
<path fill-rule="evenodd" clip-rule="evenodd" d="M90.5585 9.46875L92.4152 11.3472L83.6438 20.2217L81.7871 18.3434L90.5585 9.46875Z" fill="#4DF189"/>
</g>
<defs>
<clipPath id="clip0_28027_22295">
<rect width="192" height="26.6438" fill="white"/>
</clipPath>
</defs>
</svg>
